<?xml version="1.0" encoding="iso-8859-1"?>
<!-- Generator: Adobe Illustrator 19.1.1, SVG Export Plug-In . SVG Version: 6.00 Build 0)  -->
<svg version="1.1"  xmlns="http://www.w3.org/2000/svg" xmlns:xlink="http://www.w3.org/1999/xlink" x="0px" y="0px"
	 viewBox="0 0 48 48" style="enable-background:new 0 0 48 48;" xml:space="preserve">
<path style="fill:#FFB74D;" d="M34.515,28.025c-0.157,0-0.317-0.025-0.475-0.076l-5.515-2.525c-0.449-0.15-0.801-0.502-0.949-0.951
	L24,16c-0.261-0.785,1.055-1.289,1.842-1.549c0.786-0.26,1.635,0.166,1.895,0.953l2.451,7.412l4.802,2.285
	c0.786,0.262,1.21,1.113,0.948,1.898C35.728,27.629,35.143,28.025,34.515,28.025z"/>
<path style="fill:#606FC4;" d="M26.788,22.606l2.857-1.429l-1.909-5.773c-0.26-0.787-1.108-1.213-1.894-0.953
	C25.055,14.711,23.739,15.215,24,16L26.788,22.606z"/>
<path style="fill:#FFB74D;" d="M26.5,4C28.433,4,30,5.567,30,7.5c0,1.932-1.567,3.5-3.5,3.5S23,9.432,23,7.5
	C23,5.567,24.567,4,26.5,4"/>
<path style="fill:#B2AEAD;" d="M12.999,44c-0.451,0-0.905-0.152-1.279-0.465c-0.849-0.707-0.963-1.967-0.256-2.817l4.738-5.683
	l2.882-9.609c0.318-1.059,1.435-1.66,2.49-1.342C22.633,24.402,24.317,25.941,24,27l-4.084,9.574c-0.078,0.257-0.207,0.5-0.38,0.707
	l-5,6C14.141,43.754,13.572,44,12.999,44z"/>
<path style="fill:#7E8CCF;" d="M22.004,30.5c-0.208,0-0.418-0.018-0.63-0.057c-1.902-0.346-3.163-2.168-2.817-4.069l2.5-10.5
	c0.346-1.902,2.167-3.168,4.069-2.816c1.902,0.344,3.163,2.168,2.817,4.068l-2.5,10.498C25.136,29.316,23.663,30.5,22.004,30.5z"/>
<path style="fill:#FFB74D;" d="M13.516,29c-0.075,0-0.15-0.006-0.227-0.016c-0.818-0.125-1.382-0.891-1.258-1.711l1.58-7.531
	c0.059-0.383,0.264-0.728,0.571-0.965l6.812-5.219C22,13,23,13,24.609,13c0.828,0-0.951,3.496-1.609,4l-6.514,3.793l-1.489,6.934
	C14.884,28.469,14.244,29,13.516,29z"/>
<path style="fill:#D2CCC9;" d="M29.297,34.734c-0.021-0.031-0.042-0.059-0.065-0.09l-3.933-6.498
	c0.058-0.169,0.111-0.341,0.144-0.522l0.059-0.249l-6.781-1.695l-0.165,0.694c-0.243,1.334,0.317,2.619,1.324,3.392L26,37
	l3.336,6.109C29.722,43.688,30.355,44,31.002,44c0.381,0,0.767-0.109,1.107-0.336c0.919-0.613,1.167-1.855,0.555-2.773
	L29.297,34.734z"/>
<path style="fill:#7E8CCF;" d="M24.609,13C23,13,22,13,20.994,13.559l-4.307,3.3l2.084,2.604L23,17
	C23.658,16.496,25.438,13,24.609,13z"/>
</svg>
